<svg width="213" height="49" viewBox="0 0 213 49" fill="none" xmlns="http://www.w3.org/2000/svg">
<path d="M35.9945 21.4693C35.386 22.0815 34.9201 22.8203 34.6298 23.6331C34.3395 24.4459 34.2321 25.3128 34.3151 26.1719L34.2862 26.143C34.3717 27.1543 34.2352 28.1719 33.8866 29.1251C33.5381 30.0781 32.9858 30.9437 32.2683 31.6614C31.5506 32.3789 30.685 32.9313 29.7318 33.2797C28.7788 33.6283 27.761 33.7648 26.7499 33.6793L26.7788 33.7082C25.5692 33.5957 24.3543 33.8588 23.2996 34.462C22.2451 35.0652 21.4022 35.979 20.886 37.0787C20.3698 38.1785 20.2052 39.4106 20.4149 40.6074C20.6248 41.804 21.1984 42.9068 22.0579 43.7655C22.9173 44.6241 24.0206 45.1968 25.2174 45.4053C26.4143 45.6141 27.6462 45.4484 28.7456 44.9312C29.8449 44.4139 30.7578 43.5704 31.36 42.5152C31.9622 41.4601 32.2244 40.245 32.1107 39.0354L32.1413 39.0643C32.0558 38.0531 32.1921 37.0354 32.5407 36.0822C32.8893 35.1291 33.4417 34.2636 34.1592 33.5459C34.8769 32.8284 35.7425 32.276 36.6955 31.9276C37.6487 31.579 38.6663 31.4425 39.6776 31.5279L39.6471 31.499C40.6352 31.5878 41.6298 31.4258 42.5387 31.028C43.4474 30.6301 44.2412 30.0093 44.8461 29.223C45.4511 28.4368 45.848 27.5104 45.9996 26.5301C46.1513 25.5496 46.053 24.5468 45.7139 23.6143C45.3749 22.6819 44.8058 21.8503 44.0598 21.1963C43.3137 20.5424 42.4146 20.0874 41.4458 19.8735C40.477 19.6597 39.4699 19.6937 38.5178 19.9726C37.5657 20.2516 36.6995 20.7664 35.9993 21.4693H35.9945Z" fill="#0D0D0D"/>
<path d="M24.1506 29.9226L24.1201 29.8937C24.9795 29.9803 25.8475 29.8748 26.6613 29.5848C27.475 29.2949 28.2142 28.8278 28.8252 28.2172C29.4361 27.6067 29.904 26.8678 30.1944 26.0543C30.485 25.2407 30.5912 24.373 30.5053 23.5134L30.5358 23.5423C30.4503 22.5309 30.5868 21.5133 30.9352 20.5601C31.2838 19.6071 31.8362 18.7416 32.5538 18.0239C33.2714 17.3064 34.137 16.7539 35.09 16.4055C36.0432 16.0569 37.0608 15.9205 38.0721 16.0059L38.0416 15.977C39.2514 16.0907 40.4666 15.8283 41.5218 15.2258C42.5771 14.6233 43.4206 13.7099 43.9376 12.6104C44.4546 11.5108 44.6198 10.2785 44.4108 9.08155C44.2017 7.88461 43.6286 6.78132 42.7693 5.92214C41.9102 5.06297 40.8068 4.48973 39.6099 4.28066C38.413 4.07157 37.1807 4.2368 36.0811 4.75381C34.9815 5.27081 34.0683 6.11443 33.4657 7.16961C32.8631 8.22476 32.6008 9.4401 32.7145 10.6498L32.6856 10.6193C32.7711 11.6306 32.635 12.6484 32.2866 13.6017C31.9382 14.5549 31.3857 15.4206 30.6682 16.1383C29.9505 16.8559 29.0848 17.4083 28.1316 17.7567C27.1783 18.1051 26.1605 18.2413 25.1492 18.1557L25.1781 18.1862C24.3187 18.0997 23.4506 18.2051 22.6369 18.4951C21.8232 18.7849 21.084 19.2521 20.4729 19.8627C19.8619 20.4733 19.3942 21.2121 19.1036 22.0257C18.8131 22.8392 18.707 23.707 18.7929 24.5666L18.764 24.5377C18.8491 25.5488 18.7125 26.5664 18.3639 27.5195C18.0152 28.4724 17.4629 29.3379 16.7454 30.0554C16.0278 30.7729 15.1623 31.3252 14.2094 31.674C13.2564 32.0225 12.2388 32.1591 11.2276 32.0741L11.2565 32.1029C10.0468 31.9893 8.83146 32.2516 7.77629 32.8542C6.72114 33.4567 5.87751 34.37 5.36051 35.4696C4.8435 36.5692 4.67826 37.8015 4.88735 38.9984C5.09643 40.1953 5.66967 41.2986 6.52884 42.1578C7.38803 43.017 8.49132 43.5902 9.68826 43.7992C10.8852 44.0083 12.1175 43.8431 13.2171 43.3261C14.3166 42.8091 15.23 41.9656 15.8325 40.9104C16.435 39.8551 16.6974 38.6399 16.5837 37.4301L16.6142 37.459C16.5288 36.4477 16.6653 35.4301 17.0138 34.4769C17.3622 33.5238 17.9147 32.6583 18.6322 31.9406C19.3499 31.2231 20.2154 30.6707 21.1684 30.3223C22.1217 29.9737 23.1392 29.8372 24.1506 29.9226Z" fill="#0D0D0D"/>
<path d="M13.3901 26.6994C13.9986 26.0874 14.4645 25.3486 14.7546 24.5357C15.0446 23.7228 15.1516 22.8558 15.0679 21.9968L15.0984 22.0257C15.013 21.0143 15.1494 19.9962 15.4981 19.0428C15.8468 18.0895 16.3995 17.2238 17.1175 16.5061C17.8355 15.7884 18.7014 15.2362 19.6549 14.8878C20.6084 14.5395 21.6265 14.4035 22.638 14.4894L22.6075 14.4605C23.8168 14.5738 25.0317 14.3113 26.0863 13.7088C27.141 13.1064 27.9841 12.1933 28.5009 11.0941C29.0176 9.99481 29.1826 8.76296 28.9736 7.56647C28.7645 6.36998 28.1914 5.26711 27.3326 4.40825C26.4738 3.54939 25.3708 2.97634 24.1743 2.76727C22.9779 2.55818 21.7459 2.72326 20.6468 3.23995C19.5475 3.75664 18.6344 4.59982 18.032 5.65449C17.4295 6.70917 17.167 7.92401 17.2803 9.13333L17.2514 9.10443C17.3368 10.1157 17.2004 11.1334 16.8518 12.0865C16.5032 13.0396 15.951 13.9051 15.2334 14.6228C14.5158 15.3404 13.6502 15.8927 12.6971 16.2412C11.744 16.5897 10.7263 16.7262 9.71505 16.6408L9.74395 16.6697C8.75586 16.5811 7.76137 16.7434 6.85268 17.1414C5.94398 17.5394 5.15044 18.1604 4.54562 18.9468C3.9408 19.733 3.54427 20.6594 3.39274 21.6398C3.24122 22.6203 3.33963 23.6231 3.67883 24.5553C4.01803 25.4876 4.58708 26.3191 5.33322 26.9729C6.07935 27.6268 6.97845 28.0817 7.9472 28.2955C8.91593 28.5092 9.92297 28.475 10.875 28.1961C11.827 27.9171 12.6932 27.4024 13.3933 26.6994H13.3901Z" fill="#0D0D0D"/>
<path d="M57.9135 33.583V16.303H60.8055V30.871H68.4375V33.583H57.9135ZM70.2304 33.583V16.303H73.1224V33.583H70.2304ZM76.237 33.583V16.303H83.377C83.545 16.303 83.761 16.311 84.025 16.327C84.289 16.335 84.533 16.359 84.757 16.399C85.757 16.551 86.581 16.883 87.229 17.395C87.885 17.907 88.369 18.555 88.681 19.339C89.001 20.115 89.161 20.979 89.161 21.931C89.161 23.339 88.805 24.551 88.093 25.567C87.381 26.575 86.289 27.199 84.817 27.439L83.581 27.547H79.129V33.583H76.237ZM86.161 33.583L82.753 26.551L85.693 25.903L89.437 33.583H86.161ZM79.129 24.847H83.257C83.417 24.847 83.597 24.839 83.797 24.823C83.997 24.807 84.181 24.775 84.349 24.727C84.829 24.607 85.205 24.395 85.477 24.091C85.757 23.787 85.953 23.443 86.065 23.059C86.185 22.675 86.245 22.299 86.245 21.931C86.245 21.563 86.185 21.187 86.065 20.803C85.953 20.411 85.757 20.063 85.477 19.759C85.205 19.455 84.829 19.243 84.349 19.123C84.181 19.075 83.997 19.047 83.797 19.039C83.597 19.023 83.417 19.015 83.257 19.015H79.129V24.847ZM91.8407 33.583V16.303H94.7327V33.583H91.8407ZM105.155 33.943C103.427 33.943 101.947 33.567 100.715 32.815C99.4833 32.055 98.5353 30.999 97.8713 29.647C97.2153 28.295 96.8873 26.727 96.8873 24.943C96.8873 23.159 97.2153 21.591 97.8713 20.239C98.5353 18.887 99.4833 17.835 100.715 17.083C101.947 16.323 103.427 15.943 105.155 15.943C106.883 15.943 108.363 16.323 109.595 17.083C110.835 17.835 111.783 18.887 112.439 20.239C113.103 21.591 113.435 23.159 113.435 24.943C113.435 26.727 113.103 28.295 112.439 29.647C111.783 30.999 110.835 32.055 109.595 32.815C108.363 33.567 106.883 33.943 105.155 33.943ZM105.155 31.219C106.315 31.227 107.279 30.971 108.047 30.451C108.823 29.931 109.403 29.199 109.787 28.255C110.179 27.311 110.375 26.207 110.375 24.943C110.375 23.679 110.179 22.583 109.787 21.655C109.403 20.719 108.823 19.991 108.047 19.471C107.279 18.951 106.315 18.683 105.155 18.667C103.995 18.659 103.031 18.915 102.263 19.435C101.495 19.955 100.915 20.687 100.523 21.631C100.139 22.575 99.9473 23.679 99.9473 24.943C99.9473 26.207 100.139 27.307 100.523 28.243C100.907 29.171 101.483 29.895 102.251 30.415C103.027 30.935 103.995 31.203 105.155 31.219ZM119.669 33.583V16.303H126.521C127.689 16.303 128.645 16.539 129.389 17.011C130.141 17.475 130.697 18.071 131.057 18.799C131.425 19.527 131.609 20.279 131.609 21.055C131.609 22.007 131.381 22.815 130.925 23.479C130.477 24.143 129.865 24.591 129.089 24.823V24.223C130.177 24.471 131.001 24.987 131.561 25.771C132.129 26.555 132.413 27.447 132.413 28.447C132.413 29.471 132.217 30.367 131.825 31.135C131.433 31.903 130.849 32.503 130.073 32.935C129.305 33.367 128.353 33.583 127.217 33.583H119.669ZM122.597 30.859H126.857C127.361 30.859 127.813 30.759 128.213 30.559C128.613 30.351 128.925 30.063 129.149 29.695C129.381 29.319 129.497 28.875 129.497 28.363C129.497 27.899 129.397 27.483 129.197 27.115C128.997 26.747 128.705 26.455 128.321 26.239C127.937 26.015 127.477 25.903 126.941 25.903H122.597V30.859ZM122.597 23.203H126.485C126.901 23.203 127.273 23.123 127.601 22.963C127.929 22.803 128.189 22.567 128.381 22.255C128.573 21.943 128.669 21.559 128.669 21.103C128.669 20.503 128.477 20.003 128.093 19.603C127.709 19.203 127.173 19.003 126.485 19.003H122.597V23.203ZM134.569 33.583V16.303H137.461V30.871H145.093V33.583H134.569ZM145.446 33.583L150.894 16.303H155.13L160.578 33.583H157.602L152.658 18.079H153.306L148.422 33.583H145.446ZM148.482 29.839V27.139H157.554V29.839H148.482ZM162.268 33.583V16.303H165.196L173.212 28.483V16.303H176.14V33.583H173.212L165.196 21.403V33.583H162.268ZM186.322 33.943C184.594 33.943 183.114 33.567 181.882 32.815C180.65 32.055 179.702 30.999 179.038 29.647C178.382 28.295 178.054 26.727 178.054 24.943C178.054 23.159 178.382 21.591 179.038 20.239C179.702 18.887 180.65 17.835 181.882 17.083C183.114 16.323 184.594 15.943 186.322 15.943C188.314 15.943 189.974 16.443 191.302 17.443C192.63 18.435 193.562 19.775 194.098 21.463L191.182 22.267C190.846 21.139 190.274 20.259 189.466 19.627C188.658 18.987 187.61 18.667 186.322 18.667C185.162 18.667 184.194 18.927 183.418 19.447C182.65 19.967 182.07 20.699 181.678 21.643C181.294 22.579 181.098 23.679 181.09 24.943C181.09 26.207 181.282 27.311 181.666 28.255C182.058 29.191 182.642 29.919 183.418 30.439C184.194 30.959 185.162 31.219 186.322 31.219C187.61 31.219 188.658 30.899 189.466 30.259C190.274 29.619 190.846 28.739 191.182 27.619L194.098 28.423C193.562 30.111 192.63 31.455 191.302 32.455C189.974 33.447 188.314 33.943 186.322 33.943ZM203.561 33.943C201.833 33.943 200.353 33.567 199.121 32.815C197.889 32.055 196.941 30.999 196.277 29.647C195.621 28.295 195.293 26.727 195.293 24.943C195.293 23.159 195.621 21.591 196.277 20.239C196.941 18.887 197.889 17.835 199.121 17.083C200.353 16.323 201.833 15.943 203.561 15.943C205.289 15.943 206.769 16.323 208.001 17.083C209.241 17.835 210.189 18.887 210.845 20.239C211.509 21.591 211.841 23.159 211.841 24.943C211.841 26.727 211.509 28.295 210.845 29.647C210.189 30.999 209.241 32.055 208.001 32.815C206.769 33.567 205.289 33.943 203.561 33.943ZM203.561 31.219C204.721 31.227 205.685 30.971 206.453 30.451C207.229 29.931 207.809 29.199 208.193 28.255C208.585 27.311 208.781 26.207 208.781 24.943C208.781 23.679 208.585 22.583 208.193 21.655C207.809 20.719 207.229 19.991 206.453 19.471C205.685 18.951 204.721 18.683 203.561 18.667C202.401 18.659 201.437 18.915 200.669 19.435C199.901 19.955 199.321 20.687 198.929 21.631C198.545 22.575 198.353 23.679 198.353 24.943C198.353 26.207 198.545 27.307 198.929 28.243C199.313 29.171 199.889 29.895 200.657 30.415C201.433 30.935 202.401 31.203 203.561 31.219Z" fill="#0D0D0D"/>
</svg>
